<svg width="64" height="64" viewBox="0 0 64 64" fill="none" xmlns="http://www.w3.org/2000/svg" role="img" aria-label="H-Mart">
  <defs>
    <linearGradient id="bagFill" x1="10" y1="8" x2="54" y2="58" gradientUnits="userSpaceOnUse">
      <stop stop-color="#3B82F6"/>
      <stop offset="1" stop-color="#1E3A8A"/>
    </linearGradient>
    <linearGradient id="tagFill" x1="42" y1="18" x2="56" y2="33" gradientUnits="userSpaceOnUse">
      <stop stop-color="#FBBF24"/>
      <stop offset="1" stop-color="#D97706"/>
    </linearGradient>
  </defs>
  <path d="M12.8 22.7C13.4 18.9 16.6 16.2 20.4 16.2H43.6C47.4 16.2 50.6 18.9 51.2 22.7L54.8 49.1C55.4 53.6 51.9 57.6 47.4 57.6H16.6C12.1 57.6 8.6 53.6 9.2 49.1L12.8 22.7Z" fill="url(#bagFill)"/>
  <path d="M22.4 20.2V17C22.4 11.7 26.7 7.4 32 7.4C37.3 7.4 41.6 11.7 41.6 17V20.2" stroke="#0F2F7A" stroke-width="6" stroke-linecap="round"/>
  <path d="M23.6 20.2V17C23.6 12.4 27.4 8.6 32 8.6C36.6 8.6 40.4 12.4 40.4 17V20.2" stroke="#DBEAFE" stroke-width="3.4" stroke-linecap="round"/>
  <path d="M22.8 29.2H28.7V36.4H35.3V29.2H41.2V49.4H35.3V41.5H28.7V49.4H22.8V29.2Z" fill="#FFFFFF"/>
  <path d="M45.8 19.7C51.2 21 54.5 24.8 55.6 30.3C50 31.6 45.8 29.4 43.3 24.3C43.9 22.5 44.8 21 45.8 19.7Z" fill="url(#tagFill)"/>
</svg>
